<svg width="36" height="36" viewBox="0 0 36 36" fill="none" xmlns="http://www.w3.org/2000/svg">
<path d="M18.9257 9.3286H17.0801C16.9113 9.3286 16.7731 9.46673 16.7731 9.63556V20.1987C16.7731 20.2985 16.8192 20.3906 16.8998 20.4481L23.2423 25.0793C23.3804 25.1791 23.5722 25.1522 23.672 25.0141L24.7694 23.5177C24.873 23.3757 24.8423 23.1839 24.7041 23.0879L19.2326 19.132V9.63556C19.2326 9.46673 19.0945 9.3286 18.9257 9.3286ZM27.3593 12.214L33.3757 13.6835C33.5675 13.7296 33.7555 13.5838 33.7555 13.3881L33.7862 7.19141C33.7862 6.93434 33.4908 6.78853 33.2913 6.94968L27.2442 11.673C27.1985 11.7083 27.1637 11.7559 27.1438 11.8101C27.1239 11.8644 27.1198 11.9231 27.1318 11.9797C27.1438 12.0362 27.1716 12.0881 27.2118 12.1296C27.2521 12.1711 27.3032 12.2003 27.3593 12.214ZM33.7939 23.7671L31.6184 23.0189C31.5425 22.9929 31.4595 22.9976 31.3871 23.032C31.3146 23.0664 31.2586 23.1278 31.2308 23.203C31.1579 23.3987 31.0812 23.5906 31.0006 23.7824C30.3176 25.3978 29.3392 26.852 28.0883 28.099C26.8514 29.3398 25.3854 30.3288 23.7718 31.0113C22.1001 31.718 20.3032 32.0808 18.4883 32.0779C16.6542 32.0779 14.8777 31.7211 13.2048 31.0113C11.5911 30.3288 10.1252 29.3398 8.8882 28.099C7.64118 26.852 6.66276 25.3978 5.97594 23.7824C5.27308 22.1098 4.91297 20.3132 4.91694 18.4989C4.91694 16.6649 5.27378 14.8845 5.98362 13.2116C6.6666 11.5962 7.64502 10.142 8.89587 8.89502C10.1328 7.65422 11.5988 6.6652 13.2125 5.98277C14.8777 5.27293 16.658 4.91609 18.4921 4.91609C20.3262 4.91609 22.1027 5.27293 23.7756 5.98277C25.3893 6.6652 26.8552 7.65422 28.0922 8.89502C28.4836 9.29023 28.8519 9.70078 29.1896 10.1344L31.4841 8.33866C28.4644 4.47868 23.7641 1.99617 18.4844 2C9.29107 2.00384 1.90877 9.47057 2.00085 18.6678C2.09294 27.7038 9.44072 34.9979 18.4921 34.9979C25.6097 34.9979 31.6721 30.4856 33.9819 24.1661C34.0395 24.005 33.9551 23.8246 33.7939 23.7671Z" fill="#FFBB00"/>
</svg>
