<svg width="36" height="36" viewBox="0 0 36 36" fill="none" xmlns="http://www.w3.org/2000/svg">
<path d="M17.1111 6.44446V9.11112H14.4444V10.8889H17.1111V13.5556H18.8889V10.8889H21.5556V9.11112H18.8889V6.44446H17.1111Z" fill="#FFBB00"/>
<path fill-rule="evenodd" clip-rule="evenodd" d="M2 4.66667C2 3.95942 2.28095 3.28115 2.78105 2.78105C3.28115 2.28095 3.95942 2 4.66667 2H31.3333C32.0406 2 32.7189 2.28095 33.219 2.78105C33.719 3.28115 34 3.95942 34 4.66667V31.3333C34 32.0406 33.719 32.7189 33.219 33.219C32.7189 33.719 32.0406 34 31.3333 34H4.66667C3.95942 34 3.28115 33.719 2.78105 33.219C2.28095 32.7189 2 32.0406 2 31.3333V4.66667ZM3.77778 4.66667C3.77778 4.43092 3.87143 4.20483 4.03813 4.03813C4.20483 3.87143 4.43092 3.77778 4.66667 3.77778H31.3333C31.5691 3.77778 31.7952 3.87143 31.9619 4.03813C32.1286 4.20483 32.2222 4.43092 32.2222 4.66667V27.7778H29.8524C29.8524 27.722 29.847 27.6663 29.8364 27.6116L28.6898 21.5964L30.4098 15.5778C30.4746 15.3511 30.4467 15.108 30.3323 14.9018C30.2179 14.6957 30.0262 14.5435 29.7996 14.4787C29.5729 14.4138 29.3297 14.4417 29.1236 14.5561C28.9175 14.6706 28.7653 14.8622 28.7004 15.0889L27.6347 18.8204H20.6667V20.5982H21.8293V22.1022H21.3502C21.1451 22.1021 20.9463 22.173 20.7874 22.3028C20.6286 22.4325 20.5195 22.6132 20.4787 22.8143C20.4379 23.0153 20.4679 23.2242 20.5635 23.4057C20.6592 23.5871 20.8146 23.7299 21.0036 23.8098L19.8196 27.5076C19.7918 27.5949 19.7777 27.6861 19.7778 27.7778H16.2222C16.2221 27.6857 16.2077 27.5943 16.1796 27.5067L14.9973 23.8098C15.1858 23.7295 15.3407 23.5866 15.4359 23.4053C15.5312 23.224 15.5608 23.0153 15.52 22.8146C15.4791 22.6139 15.3702 22.4335 15.2116 22.3039C15.0531 22.1742 14.8546 22.1033 14.6498 22.1031H14.1707V20.5982H15.3333V18.8204H8.36444L7.29867 15.0889C7.26931 14.9737 7.21712 14.8655 7.1452 14.7708C7.07328 14.6761 6.98309 14.5968 6.87997 14.5375C6.77685 14.4783 6.66289 14.4404 6.54485 14.426C6.42681 14.4116 6.30708 14.4211 6.19275 14.4538C6.07842 14.4865 5.97182 14.5418 5.87926 14.6165C5.78669 14.6911 5.71005 14.7836 5.65387 14.8884C5.59769 14.9932 5.56311 15.1082 5.55217 15.2266C5.54124 15.3451 5.55418 15.4645 5.59022 15.5778L7.30933 21.5964L6.16356 27.6116C6.15308 27.6663 6.14773 27.722 6.14756 27.7778H3.77778V4.66667ZM31.3333 32.2222C31.5691 32.2222 31.7952 32.1286 31.9619 31.9619C32.1286 31.7952 32.2222 31.5691 32.2222 31.3333V29.5556H3.77778V31.3333C3.77778 31.5691 3.87143 31.7952 4.03813 31.9619C4.20483 32.1286 4.43092 32.2222 4.66667 32.2222H31.3333ZM26.9049 21.7218L26.9769 22.1022H23.6071V20.5982H27.1271L26.9227 21.3111C26.8847 21.4447 26.8786 21.5854 26.9049 21.7218ZM28.0578 27.7778L27.3804 24.2222H22.7378L21.6 27.7778H28.0578ZM9.09511 21.7218L9.02311 22.1022H12.3929V20.5982H8.87289L9.07733 21.3111C9.11526 21.4447 9.12135 21.5854 9.09511 21.7218ZM7.94222 27.7778L8.61956 24.2222H13.2622L14.4 27.7778H7.94222Z" fill="#FFBB00" stroke="#FFBB00" stroke-width="0.5"/>
</svg>
