<svg width="36" height="36" viewBox="0 0 36 36" fill="none" xmlns="http://www.w3.org/2000/svg">
<path d="M23.5 12L26.8456 17.9256L34 18.8748L28.75 23.4876L30.0625 30L23.5 26.9256L16.9375 30L18.25 23.4876L13 18.8748L20.35 17.9256L23.5 12Z" fill="#FFBB00"/>
<path d="M33 6.92308C33 6.27024 32.7278 5.64413 32.2434 5.18251C31.7589 4.72088 31.1018 4.46154 30.4167 4.46154H25.25V2H22.6667V4.46154H12.3333V2H9.75V4.46154H4.58333C3.89819 4.46154 3.24111 4.72088 2.75664 5.18251C2.27217 5.64413 2 6.27024 2 6.92308V31.5385C2 32.1913 2.27217 32.8174 2.75664 33.279C3.24111 33.7407 3.89819 34 4.58333 34H9.75V31.5385H4.58333V6.92308H9.75V9.38462H12.3333V6.92308H22.6667V9.38462H25.25V6.92308H30.4167V14.3077H33V6.92308Z" fill="#FFBB00"/>
</svg>
