<svg width="36" height="36" viewBox="0 0 36 36" fill="none" xmlns="http://www.w3.org/2000/svg">
<path d="M11.3087 10H7.23601C7.00455 10 6.78257 10.1011 6.6189 10.2812C6.45523 10.4612 6.36328 10.7054 6.36328 10.96V25.04C6.36328 25.1661 6.38586 25.2909 6.42971 25.4074C6.47357 25.5238 6.53786 25.6297 6.6189 25.7188C6.69994 25.808 6.79615 25.8787 6.90203 25.9269C7.00791 25.9752 7.1214 26 7.23601 26H11.3087C11.4233 26 11.5368 25.9752 11.6427 25.9269C11.7486 25.8787 11.8448 25.808 11.9258 25.7188C12.0069 25.6297 12.0712 25.5238 12.115 25.4074C12.1589 25.2909 12.1815 25.1661 12.1815 25.04V10.96C12.1815 10.7054 12.0895 10.4612 11.9258 10.2812C11.7622 10.1011 11.5402 10 11.3087 10ZM28.7633 10H24.6906C24.4591 10 24.2371 10.1011 24.0734 10.2812C23.9098 10.4612 23.8178 10.7054 23.8178 10.96V25.04C23.8178 25.1661 23.8404 25.2909 23.8843 25.4074C23.9281 25.5238 23.9924 25.6297 24.0734 25.7188C24.1545 25.808 24.2507 25.8787 24.3566 25.9269C24.4625 25.9752 24.5759 26 24.6906 26H28.7633C28.8779 26 28.9914 25.9752 29.0973 25.9269C29.2031 25.8787 29.2994 25.808 29.3804 25.7188C29.4614 25.6297 29.5257 25.5238 29.5696 25.4074C29.6134 25.2909 29.636 25.1661 29.636 25.04V10.96C29.636 10.7054 29.5441 10.4612 29.3804 10.2812C29.2167 10.1011 28.9947 10 28.7633 10Z" stroke="#FFBB00" stroke-width="2.5" stroke-linecap="round" stroke-linejoin="round"/>
<path d="M12.1818 18H23.8182M2 21.84V14.16C2 13.9053 2.09195 13.6612 2.25562 13.4811C2.41928 13.3011 2.64127 13.2 2.87273 13.2H5.49091C5.72237 13.2 5.94435 13.3011 6.10802 13.4811C6.27169 13.6612 6.36364 13.9053 6.36364 14.16V21.84C6.36364 22.0946 6.27169 22.3387 6.10802 22.5188C5.94435 22.6988 5.72237 22.8 5.49091 22.8H2.87273C2.64127 22.8 2.41928 22.6988 2.25562 22.5188C2.09195 22.3387 2 22.0946 2 21.84ZM34 21.84V14.16C34 13.9053 33.9081 13.6612 33.7444 13.4811C33.5807 13.3011 33.3587 13.2 33.1273 13.2H30.5091C30.2776 13.2 30.0556 13.3011 29.892 13.4811C29.7283 13.6612 29.6364 13.9053 29.6364 14.16V21.84C29.6364 22.0946 29.7283 22.3387 29.892 22.5188C30.0556 22.6988 30.2776 22.8 30.5091 22.8H33.1273C33.3587 22.8 33.5807 22.6988 33.7444 22.5188C33.9081 22.3387 34 22.0946 34 21.84Z" stroke="#FFBB00" stroke-width="2.5" stroke-linecap="round" stroke-linejoin="round"/>
</svg>
