<svg width="36" height="36" viewBox="0 0 36 36" fill="none" xmlns="http://www.w3.org/2000/svg">
<path d="M30.0552 3.3118C26.342 -0.324275 19.5503 0.406047 14.9009 4.95891C12.362 7.44511 10.9021 10.9724 10.8704 13.4431C10.8386 15.8982 11.283 19.4877 8.72816 21.9894L2 28.5778L4.2533 30.7843L10.9815 24.1959C13.5363 21.6942 17.2018 22.1292 19.709 22.0982C22.2162 22.0671 25.8342 20.6375 28.3731 18.1513C33.0067 13.5985 33.7683 6.94787 30.0552 3.3118ZM15.4563 17.5919C13.0285 15.2145 13.7901 10.4286 17.1384 7.14987C20.4866 3.87119 25.3581 3.12533 27.8019 5.50276C30.2297 7.88019 29.468 12.6661 26.1198 15.9448C22.7716 19.2235 17.9 19.9694 15.4563 17.5919ZM27.6432 25.8585C28.4842 25.8585 29.2935 26.1849 29.8806 26.7753C31.1183 27.9874 31.1183 29.9608 29.8806 31.1728C29.2935 31.7477 28.4842 32.0741 27.6432 32.0741C26.8022 32.0741 25.9929 31.7477 25.4057 31.1573C24.168 29.9452 24.168 27.9718 25.4057 26.7598C25.9929 26.1849 26.8022 25.8585 27.6432 25.8585ZM27.6432 22.7508C26.3864 22.7483 25.1572 23.1115 24.1115 23.7941C23.0657 24.4768 22.2506 25.4482 21.7695 26.5851C21.2885 27.7221 21.1631 28.9734 21.4093 30.1802C21.6555 31.387 22.2622 32.4951 23.1524 33.3638C24.3902 34.5758 26.0246 35.1818 27.6432 35.1818C28.9 35.1843 30.1292 34.8211 31.1749 34.1385C32.2206 33.4558 33.0357 32.4844 33.5168 31.3475C33.9979 30.2105 34.1233 28.9593 33.8771 27.7524C33.6309 26.5456 33.0242 25.4375 32.1339 24.5688C31.5441 23.9917 30.8439 23.534 30.0733 23.2221C29.3028 22.9101 28.477 22.75 27.6432 22.7508Z" fill="#FFBB00"/>
</svg>
