<svg width="36" height="36" viewBox="0 0 36 36" fill="none" xmlns="http://www.w3.org/2000/svg">
<path d="M4.71017 15.5884C8.16077 12.2616 12.8416 10.2163 18.0025 10.2163C23.1634 10.2163 27.8442 12.2616 31.2948 15.5884C31.9349 16.2015 32.9451 16.1814 33.5552 15.5432C34.1653 14.9049 34.1453 13.8848 33.5102 13.2717C29.4895 9.38706 24.0236 7 18.0025 7C11.9814 7 6.51549 9.38706 2.48978 13.2667C1.85467 13.8848 1.83466 14.8999 2.44477 15.5432C3.05488 16.1864 4.07006 16.2065 4.70517 15.5884H4.71017ZM18.0025 18.2569C20.843 18.2569 23.4335 19.3172 25.4138 21.0711C26.0789 21.6591 27.0891 21.5937 27.6742 20.9304C28.2593 20.267 28.1943 19.2469 27.5342 18.6589C24.9937 16.4075 21.6531 15.0406 18.0025 15.0406C14.3519 15.0406 11.0113 16.4075 8.47583 18.6589C7.81071 19.2469 7.7507 20.262 8.33581 20.9304C8.92091 21.5988 9.93109 21.6591 10.5962 21.0711C12.5715 19.3172 15.162 18.2569 18.0075 18.2569H18.0025ZM21.2031 26.2975C21.2031 25.4445 20.8659 24.6264 20.2656 24.0233C19.6654 23.4201 18.8513 23.0813 18.0025 23.0813C17.1537 23.0813 16.3396 23.4201 15.7394 24.0233C15.1391 24.6264 14.8019 25.4445 14.8019 26.2975C14.8019 27.1505 15.1391 27.9686 15.7394 28.5717C16.3396 29.1749 17.1537 29.5138 18.0025 29.5138C18.8513 29.5138 19.6654 29.1749 20.2656 28.5717C20.8659 27.9686 21.2031 27.1505 21.2031 26.2975Z" fill="#FFBB00"/>
</svg>
